<svg width="24" height="24" viewBox="0 0 24 24" fill="none" xmlns="http://www.w3.org/2000/svg">
<path fill-rule="evenodd" clip-rule="evenodd" d="M15.2117 13.2129C15.4162 12.7495 15.5304 12.2336 15.5304 12.0015C15.5304 9.98963 13.9673 8.3584 12.0395 8.3584C10.1117 8.3584 8.54858 9.98963 8.54858 12.0015C8.54858 14.0133 10.2941 15.3332 12.0395 15.3332C13.156 15.3332 14.1497 14.7871 14.7872 13.9369C14.9543 13.7145 15.0975 13.4717 15.2117 13.2129ZM12.0395 13.5117C12.4758 13.5117 12.8747 13.3445 13.1815 13.0679C13.5515 12.7344 13.7143 12.2407 13.7143 12.0015C13.7143 10.9956 13.0043 10.1799 12.0395 10.1799C11.0747 10.1799 10.2857 10.9942 10.2857 12.0001C10.2857 12.6948 11.0747 13.5117 12.0395 13.5117Z" fill="black"/>
<path fill-rule="evenodd" clip-rule="evenodd" d="M0.936138 12.2331C0.922501 12.2162 0.949775 12.2508 0.936138 12.2331C0.829441 12.0871 0.832126 11.9135 0.936618 11.7658C0.944272 11.755 0.952072 11.7438 0.959975 11.7323C4.09804 7.15089 7.98951 4.71387 12.0122 4.71387C16.0307 4.71387 19.9187 7.14433 23.0534 11.7166C23.1129 11.8033 23.1429 11.8924 23.1429 11.9992C23.1429 12.1111 23.108 12.2052 23.0454 12.2962C19.9116 16.8598 16.0271 19.2853 12.0122 19.2853C7.97928 19.2853 4.07761 16.8367 0.936138 12.2331ZM3.3764 11.4446C3.11841 11.7653 3.11841 12.2329 3.37639 12.5537C6.06361 15.8947 9.08935 17.4638 12.0122 17.4638C14.9351 17.4638 17.9609 15.8947 20.6481 12.5537C20.9061 12.2329 20.9061 11.7653 20.6481 11.4446C17.9609 8.10365 14.9351 6.53541 12.0122 6.53541C9.08935 6.53541 6.06361 8.10365 3.3764 11.4446Z" fill="black"/>
</svg>
